<svg width="61" height="25" viewBox="0 0 61 25" fill="none" xmlns="http://www.w3.org/2000/svg">
<path d="M15.8091 0C18.9278 0.000114482 24.3044 2.41453 24.1968 8.07883C24.1108 12.6103 19.3577 14.8572 16.9917 15.4144L22.6917 21.6364H15.8091L5.69997 11.8858V19.5005L0 22.658V0H15.8091ZM5.82578 4.83984L6.31615 5.36435L11.304 10.7063L11.4149 10.825L11.5856 10.8182L15.8308 10.6336L15.8743 10.6317L15.9158 10.6206C16.399 10.4863 17.1064 10.1791 17.6889 9.68278C18.2763 9.18222 18.7577 8.46796 18.7091 7.53754C18.66 6.60246 18.094 5.95316 17.4427 5.53338C16.7986 5.11832 16.0488 4.91007 15.5465 4.84295L15.5214 4.83984H5.82578Z" fill="black"/>
<path d="M28.8161 22.1728C28.0289 22.1728 27.2945 22.0336 26.6129 21.7552C25.9313 21.4768 25.3361 21.088 24.8273 20.5888C24.3185 20.0896 23.9201 19.504 23.6321 18.832C23.3537 18.1504 23.2145 17.416 23.2145 16.6288C23.2145 15.832 23.3537 15.0976 23.6321 14.4256C23.9105 13.7536 24.3041 13.168 24.8129 12.6688C25.3217 12.1696 25.9169 11.7856 26.5985 11.5168C27.2801 11.2384 28.0193 11.0992 28.8161 11.0992C29.6129 11.0992 30.3521 11.2384 31.0337 11.5168C31.7153 11.7952 32.3105 12.184 32.8193 12.6832C33.3281 13.1728 33.7217 13.7536 34.0001 14.4256C34.2881 15.0976 34.4321 15.832 34.4321 16.6288C34.4321 17.416 34.2881 18.1504 34.0001 18.832C33.7121 19.504 33.3137 20.0896 32.8049 20.5888C32.2961 21.088 31.7009 21.4768 31.0193 21.7552C30.3473 22.0336 29.6129 22.1728 28.8161 22.1728ZM28.8161 20.3872C29.3441 20.3872 29.8289 20.296 30.2705 20.1136C30.7121 19.9216 31.0961 19.6576 31.4225 19.3216C31.7585 18.9856 32.0129 18.5872 32.1857 18.1264C32.3681 17.6656 32.4593 17.1664 32.4593 16.6288C32.4593 16.0912 32.3681 15.5968 32.1857 15.1456C32.0129 14.6848 31.7585 14.2864 31.4225 13.9504C31.0961 13.6048 30.7121 13.3408 30.2705 13.1584C29.8289 12.976 29.3441 12.8848 28.8161 12.8848C28.2977 12.8848 27.8177 12.976 27.3761 13.1584C26.9345 13.3408 26.5457 13.6048 26.2097 13.9504C25.8833 14.2864 25.6289 14.6848 25.4465 15.1456C25.2641 15.5968 25.1729 16.0912 25.1729 16.6288C25.1729 17.1664 25.2641 17.6656 25.4465 18.1264C25.6289 18.5872 25.8833 18.9856 26.2097 19.3216C26.5457 19.6576 26.9345 19.9216 27.3761 20.1136C27.8177 20.296 28.2977 20.3872 28.8161 20.3872ZM36.1735 22V11.272H37.6999L43.6039 19.2208L42.8119 19.3792V11.272H44.7703V22H43.2295L37.4119 13.9936L38.1319 13.8352V22H36.1735ZM46.847 22V11.272H48.8054V22H46.847ZM50.8688 22V11.272H52.3952L58.2992 19.2208L57.5072 19.3792V11.272H59.4656V22H57.9248L52.1072 13.9936L52.8272 13.8352V22H50.8688Z" fill="black"/>
</svg>
