<svg width="32" height="32" viewBox="0 0 32 32" fill="none" xmlns="http://www.w3.org/2000/svg">
  <rect width="32" height="32" rx="6" fill="white"/>
  <path d="M20.8091 4C23.9278 4.00011 29.3044 6.41453 29.1968 12.0788C29.1108 16.6103 24.3577 18.8572 21.9917 19.4144L27.6917 25.6364H20.8091L10.6999 15.8858V23.5005L5 26.658V4H20.8091ZM10.8258 8.83984L11.3161 9.36435L16.304 14.7063L16.4149 14.825L16.5856 14.8182L20.8308 14.6336L20.8743 14.6317L20.9158 14.6206C21.399 14.4863 22.1064 14.1791 22.6889 13.6828C23.2763 13.1822 23.7577 12.468 23.7091 11.5375C23.66 10.6025 23.094 9.95316 22.4427 9.53338C21.7986 9.11832 21.0488 8.91007 20.5465 8.84295L20.5214 8.83984H10.8258Z" fill="black"/>
</svg>
